<?xml version="1.0" encoding="UTF-8" standalone="no"?>
<svg width="24px" height="24px" viewBox="0 0 24 24" version="1.1" xmlns="http://www.w3.org/2000/svg" xmlns:xlink="http://www.w3.org/1999/xlink">
    <!-- Generator: Sketch 40.3 (33839) - http://www.bohemiancoding.com/sketch -->
    <title>SETTINGS</title>
    <desc>Created with Sketch.</desc>
    <defs></defs>
    <g stroke="none" stroke-width="1" fill="none" fill-rule="evenodd">
        <g transform="translate(-719.000000, -11.000000)" stroke-width="0.3" fill="#1C1C1C" stroke="#000000">
            <g>
                <g transform="translate(720.000000, 12.000000)">
                    <path d="M21.673725,8.68522338 L20.0703847,8.42342797 C19.9033701,7.90443006 19.688637,7.40380376 19.4261855,6.92614196 L20.371011,5.65390814 C20.7718461,5.11194572 20.7098121,4.37248852 20.218312,3.90401253 L18.7963018,2.53532777 C18.5290784,2.27812526 18.1759618,2.1357453 17.798986,2.1357453 C17.5031315,2.1357453 17.2215926,2.22301044 16.9830003,2.38835491 L15.6564271,3.29774948 C15.1410677,3.03595407 14.6018491,2.82008768 14.0435431,2.65933612 L13.7763197,1.13449269 C13.6617954,0.477707724 13.0748583,4.59290177e-05 12.3829407,4.59290177e-05 L10.3739934,4.59290177e-05 C9.68207575,4.59290177e-05 9.09513868,0.477707724 8.98061438,1.13449269 L8.7038473,2.69607933 C8.16940054,2.8568309 7.64926931,3.06810438 7.15299732,3.32530689 L5.84073964,2.41591232 C5.60214733,2.25056785 5.31583656,2.16330271 5.01998211,2.16330271 C4.64300626,2.16330271 4.2851178,2.30568267 4.02266627,2.56288518 L2.59588428,3.93156994 C2.10915598,4.40004593 2.04235013,5.13950313 2.44318521,5.68146555 L3.39755443,6.97207098 C3.13510289,7.45432568 2.92514166,7.95495198 2.7628989,8.4739499 L1.17864599,8.7311524 C0.496271995,8.84138205 0,9.40630898 0,10.0722797 L0,12.0058914 C0,12.6718622 0.496271995,13.2367891 1.17864599,13.3470188 L2.80107367,13.6134071 C2.96808828,14.1278121 3.1875932,14.6284384 3.45481658,15.1061002 L2.5147629,16.3645553 C2.11392783,16.9065177 2.17596183,17.6459749 2.66746197,18.1144509 L4.08947211,19.4831357 C4.3566955,19.7403382 4.70981211,19.8827182 5.08678795,19.8827182 C5.38264241,19.8827182 5.66418133,19.795453 5.90277364,19.6301086 L7.24366239,18.7115282 C7.72561885,18.954952 8.23143454,19.1524468 8.75156576,19.3086054 L9.01878914,20.8518205 C9.13331345,21.5086054 9.72025052,21.9862672 10.4121682,21.9862672 L12.4258873,21.9862672 C13.117805,21.9862672 13.704742,21.5086054 13.8192663,20.8518205 L14.0912616,19.3086054 C14.6304802,19.1478539 15.1506114,18.9411733 15.6468834,18.6885637 L16.9686848,19.5979582 C17.2072771,19.7633027 17.4935878,19.8505678 17.7894423,19.8505678 L17.7894423,19.8505678 C18.1664181,19.8505678 18.5195347,19.7081879 18.7867581,19.4509854 L20.2087683,18.0823006 C20.6954966,17.6138246 20.7623024,16.8743674 20.3614673,16.332405 L19.4166418,15.0555783 C19.6790933,14.5733236 19.8985983,14.0726973 20.060841,13.5582923 L21.6641813,13.3010898 C22.3465553,13.1908601 22.8428273,12.6259332 22.8428273,11.9599624 L22.8428273,10.0263507 C22.852371,9.36037996 22.356099,8.79545303 21.673725,8.68522338 L21.673725,8.68522338 Z M21.5639726,11.9599624 C21.5639726,12.0196701 21.5210259,12.0701921 21.4589919,12.0793779 L19.4548166,12.400881 C19.2019087,12.4422171 19.0014912,12.6213403 18.9394572,12.8555783 C18.7581271,13.5307349 18.48136,14.178334 18.109156,14.7800042 C17.9803161,14.9912777 17.9898598,15.2530731 18.1377871,15.4551608 L19.316433,17.0534906 C19.349836,17.0994196 19.3450641,17.1683132 19.3021175,17.2096493 L17.8801074,18.578334 C17.8467044,18.6104843 17.8133015,18.6150772 17.7894423,18.6150772 C17.7608112,18.6150772 17.736952,18.6058914 17.7178646,18.5921127 L16.062034,17.457666 C15.8568446,17.315286 15.5800775,17.3061002 15.3605726,17.4301086 C14.7354608,17.7883549 14.0626305,18.0547432 13.3611691,18.2292735 C13.1130331,18.2889812 12.9269311,18.486476 12.8887563,18.7253069 L12.5499553,20.6543257 C12.5404116,20.7140334 12.4879213,20.7553695 12.4258873,20.7553695 L10.4169401,20.7553695 C10.3549061,20.7553695 10.3024157,20.7140334 10.2928721,20.6543257 L9.95884283,18.7253069 C9.91589621,18.4818831 9.72979421,18.2889812 9.48643006,18.2292735 C8.80405607,18.0593361 8.14554131,17.7975407 7.52997316,17.457666 C7.42976439,17.4025511 7.31524008,17.3749937 7.20548762,17.3749937 C7.07664778,17.3749937 6.94303609,17.411737 6.83328363,17.4898163 L5.16313749,18.6334489 C5.13927826,18.6472276 5.11541903,18.6564134 5.0915598,18.6564134 C5.07247241,18.6564134 5.03429764,18.6518205 5.00089472,18.6196701 L3.57888458,17.2509854 C3.53593797,17.2096493 3.53116612,17.1453486 3.56456904,17.0948267 L4.73844319,15.5102756 C4.88637041,15.3081879 4.89591411,15.0417996 4.76707426,14.8305261 C4.39487027,14.2334489 4.1085595,13.5858497 3.92722935,12.9106931 C3.8604235,12.6764551 3.66000596,12.4973319 3.41186997,12.4559958 L1.39337906,12.1253069 C1.33134506,12.1161211 1.28839845,12.0655992 1.28839845,12.0058914 L1.28839845,10.0722797 C1.28839845,10.012572 1.33134506,9.9620501 1.39337906,9.9528643 L3.38323889,9.63136117 C3.63614673,9.59002505 3.84133612,9.41090188 3.90337012,9.17207098 C4.07992842,8.49691441 4.35192365,7.84472234 4.7193558,7.24305219 C4.84819565,7.03177871 4.83388011,6.7699833 4.68595288,6.57248852 L3.4977632,4.96497286 C3.46436027,4.91904384 3.46913212,4.85015031 3.51207874,4.8088142 L4.93408888,3.44012944 C4.9674918,3.40797912 5.00089472,3.40338622 5.02475395,3.40338622 C5.05338503,3.40338622 5.07724426,3.41257203 5.09633164,3.42635073 L6.74261855,4.55620459 C6.95257978,4.69858455 7.22934685,4.70777035 7.44885177,4.583762 C8.06919177,4.22551566 8.74202207,3.94994154 9.44348345,3.77541127 C9.6868476,3.71111065 9.8729496,3.51820877 9.91589621,3.27937787 L10.2594691,1.33658038 C10.2690128,1.27687265 10.3215031,1.23553653 10.3835371,1.23553653 L12.3924843,1.23553653 C12.4545183,1.23553653 12.5070086,1.27687265 12.5165523,1.33658038 L12.8505816,3.25182046 C12.8935282,3.49524426 13.0796302,3.69273904 13.3277662,3.75244676 C14.0483149,3.92697704 14.7354608,4.19795825 15.3748882,4.56079749 C15.5943931,4.68480585 15.8663883,4.67562004 16.0763495,4.53324008 L17.7226364,3.39420042 C17.7464957,3.38042171 17.7703549,3.37123591 17.7942141,3.37123591 C17.8133015,3.37123591 17.8514763,3.37582881 17.8848792,3.40797912 L19.3068894,4.77666388 C19.349836,4.818 19.3546078,4.88230063 19.3212049,4.93282255 L18.1425589,6.5265595 C17.9946317,6.72405428 17.985088,6.99044259 18.1139278,7.20171608 C18.4861318,7.80338622 18.7628989,8.45098539 18.944229,9.12614196 C19.006263,9.36497286 19.2114524,9.54409603 19.4595884,9.58083925 L21.4637638,9.90693528 C21.5257978,9.91612109 21.5687444,9.96664301 21.5687444,10.0263507 L21.5687444,11.9599624 L21.5639726,11.9599624 L21.5639726,11.9599624 Z"></path>
                    <path d="M11.4237996,6.24639248 C8.7038473,6.24639248 6.49448255,8.37290605 6.49448255,10.9908601 C6.49448255,13.6088142 8.7038473,15.7353278 11.4237996,15.7353278 C14.1437519,15.7353278 16.3531166,13.6088142 16.3531166,10.9908601 C16.3531166,8.37290605 14.1437519,6.24639248 11.4237996,6.24639248 L11.4237996,6.24639248 Z M11.4237996,14.4952443 C9.41485237,14.4952443 7.782881,12.9244718 7.782881,10.9908601 C7.782881,9.05724843 9.41485237,7.48647599 11.4237996,7.48647599 C13.4327468,7.48647599 15.0647182,9.05724843 15.0647182,10.9908601 C15.0647182,12.9244718 13.4327468,14.4952443 11.4237996,14.4952443 L11.4237996,14.4952443 Z"></path>
                </g>
            </g>
        </g>
    </g>
</svg>